<?xml version="1.0" encoding="UTF-8"?><svg xmlns="http://www.w3.org/2000/svg" xmlns:xlink="http://www.w3.org/1999/xlink" width="963.8" height="623.6" viewBox="0 0 963.8 623.6"><defs><linearGradient id="k" x1="850.4" y1="161.35" x2="883.64" y2="161.35" gradientTransform="matrix(1 0 0 -1 0 626)" gradientUnits="userSpaceOnUse"><stop offset="0" stop-color="#757c84"/><stop offset=".11" stop-color="#757c84"/><stop offset=".45" stop-color="#9499a0"/><stop offset=".6" stop-color="#9499a0"/><stop offset=".77" stop-color="#858b92"/><stop offset=".92" stop-color="#757c84"/><stop offset="1" stop-color="#757c84"/></linearGradient><linearGradient id="a" x1="850.4" y1="204.3" x2="883.65" y2="204.3" gradientTransform="matrix(1 0 0 -1 0 626)" gradientUnits="userSpaceOnUse"><stop offset="0" stop-color="#565f69"/><stop offset=".22" stop-color="#565f69"/><stop offset=".63" stop-color="#6e757e"/><stop offset=".74" stop-color="#757c84"/><stop offset="1" stop-color="#757c84"/></linearGradient><linearGradient id="d" x1="847.5" y1="210.25" x2="901.7" y2="210.25" gradientTransform="matrix(1 0 0 -1 0 626)" gradientUnits="userSpaceOnUse"><stop offset="0" stop-color="#848a92"/><stop offset=".02" stop-color="#848a92"/><stop offset=".6" stop-color="#848a92"/><stop offset=".65" stop-color="#7b828a"/><stop offset=".85" stop-color="#565f69"/><stop offset="1" stop-color="#565f69"/></linearGradient><linearGradient id="b" x1="812.55" y1="127.1" x2="812.55" y2="238" gradientTransform="matrix(1 0 0 -1 0 626)" gradientUnits="userSpaceOnUse"><stop offset="0" stop-color="#757c84"/><stop offset=".3" stop-color="#7e848c"/><stop offset=".78" stop-color="#969ba1"/><stop offset="1" stop-color="#a3a8ad"/></linearGradient><linearGradient id="c" x1="810.8" y1="236.25" x2="847.5" y2="236.25" gradientTransform="matrix(1 0 0 -1 0 626)" gradientUnits="userSpaceOnUse"><stop offset="0" stop-color="#9499a0"/><stop offset=".34" stop-color="#8d939a"/><stop offset="1" stop-color="#848a92"/></linearGradient><linearGradient id="e" x1="850.4" y1="204.3" x2="883.65" y2="204.3" gradientTransform="matrix(1 0 0 -1 0 626)" gradientUnits="userSpaceOnUse"><stop offset="0" stop-color="#1f1e21" stop-opacity=".5"/><stop offset=".22" stop-color="#1f1e21" stop-opacity=".5"/><stop offset=".36" stop-color="#333439" stop-opacity=".36"/><stop offset=".67" stop-color="#686d75" stop-opacity=".07"/><stop offset=".74" stop-color="#757c84" stop-opacity="0"/><stop offset="1" stop-color="#757c84" stop-opacity="0"/></linearGradient><linearGradient id="f" x1="847.5" y1="154.9" x2="901.74" y2="154.9" gradientTransform="matrix(1 0 0 -1 0 626)" gradientUnits="userSpaceOnUse"><stop offset="0" stop-color="#1f1e21" stop-opacity=".5"/><stop offset="1" stop-color="#1f1e21" stop-opacity=".3"/></linearGradient><linearGradient id="l" x1="847.5" y1="210.25" x2="901.7" y2="210.25" gradientTransform="matrix(1 0 0 -1 0 626)" gradientUnits="userSpaceOnUse"><stop offset="0" stop-color="#757c84" stop-opacity="0"/><stop offset=".02" stop-color="#757c84" stop-opacity="0"/><stop offset=".61" stop-color="#757c84" stop-opacity="0"/><stop offset=".7" stop-color="#5f646b" stop-opacity=".09"/><stop offset="1" stop-color="#1f1e21" stop-opacity=".35"/></linearGradient><linearGradient id="m" x1="750.91" y1="183.59" x2="771.76" y2="204.44" gradientTransform="matrix(1 0 0 -1 0 626)" gradientUnits="userSpaceOnUse"><stop offset="0" stop-color="#757c84"/><stop offset=".11" stop-color="#757c84"/><stop offset=".54" stop-color="#9499a0"/><stop offset=".75" stop-color="#858b92"/><stop offset=".92" stop-color="#757c84"/><stop offset="1" stop-color="#757c84"/></linearGradient><linearGradient id="n" x1="749.3" y1="215.45" x2="770.9" y2="215.45" xlink:href="#a"/><linearGradient id="o" x1="702.95" y1="127.1" x2="702.95" y2="238" xlink:href="#b"/><linearGradient id="p" x1="701.2" x2="749.24" xlink:href="#c"/><linearGradient id="q" x1="749.29" y1="222.5" x2="788.15" y2="222.5" xlink:href="#d"/><linearGradient id="r" x1="749.3" y1="215.45" x2="770.9" y2="215.45" xlink:href="#e"/><linearGradient id="s" x1="749.29" y1="222.5" x2="788.15" y2="222.5" gradientTransform="matrix(1 0 0 -1 0 626)" gradientUnits="userSpaceOnUse"><stop offset="0" stop-color="#757c84" stop-opacity="0"/><stop offset=".01" stop-color="#757c84" stop-opacity="0"/><stop offset=".3" stop-color="#757c84" stop-opacity="0"/><stop offset=".42" stop-color="#6d747c" stop-opacity=".06"/><stop offset=".61" stop-color="#595d64" stop-opacity=".15"/><stop offset=".85" stop-color="#37393d" stop-opacity=".27"/><stop offset="1" stop-color="#1f1e21" stop-opacity=".35"/></linearGradient><linearGradient id="t" x1="764.99" y1="191.45" x2="788.19" y2="191.45" xlink:href="#f"/><linearGradient id="u" x1="614.13" y1="167.75" x2="652.03" y2="167.75" gradientTransform="matrix(1 0 0 -1 0 626)" gradientUnits="userSpaceOnUse"><stop offset="0" stop-color="#757c84" stop-opacity=".3"/><stop offset=".33" stop-color="#7b828a" stop-opacity=".53"/><stop offset="1" stop-color="#848a92"/></linearGradient><linearGradient id="v" x1="642.9" y1="167.4" x2="642.9" y2="222.5" gradientTransform="matrix(1 0 0 -1 0 626)" gradientUnits="userSpaceOnUse"><stop offset="0" stop-color="#9499a0"/><stop offset=".57" stop-color="#92979e" stop-opacity=".6"/><stop offset=".78" stop-color="#8b9198" stop-opacity=".46"/><stop offset=".92" stop-color="#7f868e" stop-opacity=".35"/><stop offset="1" stop-color="#757c84" stop-opacity=".3"/></linearGradient><linearGradient id="w" x1="660.25" y1="127.1" x2="660.25" y2="156.3" gradientTransform="matrix(1 0 0 -1 0 626)" gradientUnits="userSpaceOnUse"><stop offset="0" stop-color="#848a92"/><stop offset=".66" stop-color="#828990" stop-opacity=".54"/><stop offset=".89" stop-color="#7c828a" stop-opacity=".38"/><stop offset="1" stop-color="#757c84" stop-opacity=".3"/></linearGradient><linearGradient id="x" x1="586.2" y1="182.55" x2="625.6" y2="182.55" gradientTransform="matrix(1 0 0 -1 0 626)" gradientUnits="userSpaceOnUse"><stop offset="0" stop-color="#666d77"/><stop offset=".2" stop-color="#6b727c"/><stop offset=".46" stop-color="#7b8189"/><stop offset=".74" stop-color="#949aa0"/><stop offset="1" stop-color="#b2b6bb"/></linearGradient><linearGradient id="y" x1="623.1" y1="236.25" x2="647.54" y2="236.25" gradientTransform="matrix(1 0 0 -1 0 626)" gradientUnits="userSpaceOnUse"><stop offset="0" stop-color="#9499a0"/><stop offset=".6" stop-color="#7e848c"/><stop offset="1" stop-color="#757c84"/></linearGradient><linearGradient id="z" x1="507.4" y1="160.7" x2="533.7" y2="160.7" gradientTransform="matrix(1 0 0 -1 0 626)" gradientUnits="userSpaceOnUse"><stop offset="0" stop-color="#565f69"/><stop offset=".43" stop-color="#606872"/><stop offset="1" stop-color="#757c84"/></linearGradient><linearGradient id="A" x1="489.3" y1="154.05" x2="533.74" y2="154.05" gradientTransform="matrix(1 0 0 -1 0 626)" gradientUnits="userSpaceOnUse"><stop offset="0" stop-color="#757c84"/><stop offset=".21" stop-color="#757c84"/><stop offset=".66" stop-color="#606872"/><stop offset="1" stop-color="#565f69"/></linearGradient><linearGradient id="B" x1="533.73" y1="152.3" x2="560.03" y2="152.3" gradientTransform="matrix(1 0 0 -1 0 626)" gradientUnits="userSpaceOnUse"><stop offset="0" stop-color="#757c84"/><stop offset=".68" stop-color="#a3a8ad"/><stop offset="1" stop-color="#848a92"/></linearGradient><linearGradient id="C" x1="533.6" y1="212.7" x2="559.8" y2="212.7" gradientTransform="matrix(1 0 0 -1 0 626)" gradientUnits="userSpaceOnUse"><stop offset="0" stop-color="#565f69"/><stop offset=".2" stop-color="#626a74"/><stop offset=".69" stop-color="#7b828a"/><stop offset=".99" stop-color="#848a92"/></linearGradient><linearGradient id="D" x1="481.5" y1="196.01" x2="539.45" y2="229.47" gradientTransform="matrix(1 0 0 -1 0 626)" gradientUnits="userSpaceOnUse"><stop offset="0" stop-color="#757c84"/><stop offset=".26" stop-color="#757c84"/><stop offset=".33" stop-color="#838990"/><stop offset=".49" stop-color="#9a9fa5"/><stop offset=".59" stop-color="#a3a8ad"/><stop offset=".68" stop-color="#969ba1"/><stop offset=".88" stop-color="#7e848c"/><stop offset="1" stop-color="#757c84"/></linearGradient><linearGradient id="E" x1="533.73" y1="144.45" x2="575.73" y2="144.45" gradientTransform="matrix(1 0 0 -1 0 626)" gradientUnits="userSpaceOnUse"><stop offset="0" stop-color="#1f1e21" stop-opacity=".4"/><stop offset="1" stop-color="#1f1e21" stop-opacity=".5"/></linearGradient><linearGradient id="F" x1="507.4" y1="160.7" x2="533.7" y2="160.7" gradientTransform="matrix(1 0 0 -1 0 626)" gradientUnits="userSpaceOnUse"><stop offset="0" stop-color="#1f1e21" stop-opacity=".4"/><stop offset=".12" stop-color="#343539" stop-opacity=".34"/><stop offset=".32" stop-color="#50535a" stop-opacity=".25"/><stop offset=".5" stop-color="#646a71" stop-opacity=".16"/><stop offset=".68" stop-color="#717780" stop-opacity=".07"/><stop offset=".83" stop-color="#757c84" stop-opacity="0"/><stop offset="1" stop-color="#757c84" stop-opacity="0"/></linearGradient><linearGradient id="G" x1="489.3" y1="154.05" x2="533.74" y2="154.05" gradientTransform="matrix(1 0 0 -1 0 626)" gradientUnits="userSpaceOnUse"><stop offset="0" stop-color="#757c84" stop-opacity="0"/><stop offset=".09" stop-color="#6d747c" stop-opacity=".07"/><stop offset=".23" stop-color="#595d64" stop-opacity=".18"/><stop offset=".4" stop-color="#37393d" stop-opacity=".31"/><stop offset=".52" stop-color="#1f1e21" stop-opacity=".4"/></linearGradient><linearGradient id="H" x1="533.6" y1="220.05" x2="575.7" y2="220.05" gradientTransform="matrix(1 0 0 -1 0 626)" gradientUnits="userSpaceOnUse"><stop offset="0" stop-color="#757c84" stop-opacity="0"/><stop offset=".01" stop-color="#737a82" stop-opacity=".01"/><stop offset=".2" stop-color="#55595f" stop-opacity=".1"/><stop offset=".4" stop-color="#3d3f44" stop-opacity=".2"/><stop offset=".59" stop-color="#2c2d30" stop-opacity=".3"/><stop offset=".79" stop-color="#222225" stop-opacity=".4"/><stop offset="1" stop-color="#1f1e21" stop-opacity=".5"/></linearGradient><linearGradient id="I" x1="533.6" y1="212.7" x2="559.8" y2="212.7" gradientTransform="matrix(1 0 0 -1 0 626)" gradientUnits="userSpaceOnUse"><stop offset="0" stop-color="#1f1e21" stop-opacity=".4"/><stop offset=".26" stop-color="#414347" stop-opacity=".29"/><stop offset=".59" stop-color="#666a70" stop-opacity=".16"/><stop offset=".84" stop-color="#7c8289" stop-opacity=".06"/><stop offset=".99" stop-color="#848a92" stop-opacity="0"/></linearGradient><linearGradient id="J" x1="507.4" y1="204.75" x2="533.6" y2="204.75" gradientTransform="matrix(1 0 0 -1 0 626)" gradientUnits="userSpaceOnUse"><stop offset="0" stop-color="#1f1e21" stop-opacity=".4"/><stop offset=".82" stop-color="#1f1e21" stop-opacity=".5"/><stop offset="1" stop-color="#1f1e21" stop-opacity=".5"/></linearGradient><linearGradient id="K" x1="325" y1="193.75" x2="353.53" y2="193.75" gradientTransform="matrix(1 0 0 -1 0 626)" gradientUnits="userSpaceOnUse"><stop offset="0" stop-color="#d1d3d6"/><stop offset=".37" stop-color="#e9eaec"/><stop offset=".72" stop-color="#f9fafa"/><stop offset="1" stop-color="#fff"/></linearGradient><linearGradient id="g" x1="296.9" y1="127.1" x2="296.9" y2="238" gradientTransform="matrix(1 0 0 -1 0 626)" gradientUnits="userSpaceOnUse"><stop offset="0" stop-color="#e0e2e4"/><stop offset=".19" stop-color="#e9eaec"/><stop offset=".65" stop-color="#f9fafa"/><stop offset="1" stop-color="#fff"/></linearGradient><linearGradient id="h" x1="218.81" y1="204.3" x2="252.06" y2="204.3" gradientTransform="matrix(1 0 0 -1 0 626)" gradientUnits="userSpaceOnUse"><stop offset="0" stop-color="#c2c5c9"/><stop offset=".22" stop-color="#c2c5c9"/><stop offset=".44" stop-color="#d9dbde"/><stop offset=".74" stop-color="#fff"/><stop offset="1" stop-color="#fff"/></linearGradient><linearGradient id="L" x1="197.85" y1="140.9" x2="197.85" y2="224.6" gradientTransform="matrix(1 0 0 -1 0 626)" gradientUnits="userSpaceOnUse"><stop offset="0" stop-color="#d1d3d6"/><stop offset=".22" stop-color="#dee0e2"/><stop offset=".7" stop-color="#f6f7f7"/><stop offset="1" stop-color="#fff"/></linearGradient><linearGradient id="i" x1="215.9" y1="154.9" x2="270.14" y2="154.9" gradientTransform="matrix(1 0 0 -1 0 626)" gradientUnits="userSpaceOnUse"><stop offset="0" stop-color="#c2c5c9"/><stop offset=".34" stop-color="#acb0b5"/><stop offset=".56" stop-color="#a3a8ad"/><stop offset=".72" stop-color="#a3a8ad"/><stop offset=".79" stop-color="#b1b4b9"/><stop offset=".92" stop-color="#c8cbce"/><stop offset="1" stop-color="#d1d3d6"/></linearGradient><linearGradient id="j" x1="215.93" y1="210.25" x2="270.13" y2="210.25" gradientTransform="matrix(1 0 0 -1 0 626)" gradientUnits="userSpaceOnUse"><stop offset="0" stop-color="#fff"/><stop offset=".41" stop-color="#fcfcfd"/><stop offset=".69" stop-color="#f3f4f5"/><stop offset=".77" stop-color="#f0f0f1"/><stop offset=".88" stop-color="#d1d3d6"/><stop offset="1" stop-color="#d1d3d6"/></linearGradient><linearGradient id="M" x1="180.95" y1="127.1" x2="180.95" y2="238" gradientTransform="matrix(1 0 0 -1 0 626)" gradientUnits="userSpaceOnUse"><stop offset="0" stop-color="#e0e2e4"/><stop offset=".6" stop-color="#f6f7f7"/><stop offset="1" stop-color="#fff"/></linearGradient><linearGradient id="N" x1="90.8" y1="167.75" x2="128.7" y2="167.75" gradientTransform="matrix(1 0 0 -1 0 626)" gradientUnits="userSpaceOnUse"><stop offset="0" stop-color="#e0e2e4"/><stop offset=".08" stop-color="#e8e9eb"/><stop offset=".26" stop-color="#f5f6f6"/><stop offset=".5" stop-color="#fdfdfd"/><stop offset="1" stop-color="#fff"/></linearGradient><linearGradient id="O" x1="119.58" y1="167.4" x2="119.58" y2="222.5" gradientTransform="matrix(1 0 0 -1 0 626)" gradientUnits="userSpaceOnUse"><stop offset="0" stop-color="#fff"/><stop offset=".5" stop-color="#fdfdfd"/><stop offset=".74" stop-color="#f5f6f6"/><stop offset=".92" stop-color="#e8e9eb"/><stop offset="1" stop-color="#e0e2e4"/></linearGradient><linearGradient id="P" x1="62.86" y1="182.55" x2="102.26" y2="182.55" xlink:href="#g"/><linearGradient id="Q" x1="423.36" y1="204.75" x2="452.36" y2="204.75" xlink:href="#h"/><linearGradient id="R" x1="394.35" y1="160.3" x2="423.35" y2="160.3" gradientTransform="matrix(1 0 0 -1 0 626)" gradientUnits="userSpaceOnUse"><stop offset="0" stop-color="#d1d3d6"/><stop offset=".22" stop-color="#d1d3d6"/><stop offset=".25" stop-color="#d7d9db"/><stop offset=".35" stop-color="#e9eaeb"/><stop offset=".48" stop-color="#f5f6f7"/><stop offset=".64" stop-color="#fdfdfd"/><stop offset="1" stop-color="#fff"/></linearGradient><linearGradient id="S" x1="388.59" y1="188.31" x2="425.34" y2="225.06" gradientTransform="matrix(1 0 0 -1 0 626)" gradientUnits="userSpaceOnUse"><stop offset="0" stop-color="#d1d3d6"/><stop offset=".22" stop-color="#d1d3d6"/><stop offset=".42" stop-color="#c2c5c9"/><stop offset=".73" stop-color="#a3a8ad"/><stop offset=".89" stop-color="#b8bcc0"/><stop offset="1" stop-color="#c2c5c9"/></linearGradient><linearGradient id="T" x1="423.37" y1="154.05" x2="470.47" y2="154.05" xlink:href="#i"/><linearGradient id="U" x1="423.4" y1="211.15" x2="470.53" y2="211.15" xlink:href="#j"/><linearGradient id="V" x1="376.24" y1="154.15" x2="423.34" y2="154.15" gradientTransform="matrix(1 0 0 -1 0 626)" gradientUnits="userSpaceOnUse"><stop offset="0" stop-color="#fff"/><stop offset=".37" stop-color="#e2e4e5"/><stop offset=".76" stop-color="#cacdd0"/><stop offset="1" stop-color="#c2c5c9"/></linearGradient></defs><path d="M963.8 561.3a62.42 62.42 0 0 1-62.4 62.4h-839A62.48 62.48 0 0 1 0 561.3V62.4A62.35 62.35 0 0 1 62.4 0h839.1a62.42 62.42 0 0 1 62.4 62.4v498.9z" fill="#7ab800"/><path d="M518 561.1h-5.2l-2.2-6.4h-10.4l-2.1 6.4h-4.2l9-27h6zm-8.7-10.3l-3.9-12.1-3.9 12.1zM546.4 561.1h-4.5l-10.6-17.3a28 28 0 0 1-1.5-3v20.3h-3.9v-27h5.4l9.5 15.9c.1.2.7 1.4 1.7 3.2v-19.1h3.9v27zM582.6 561.1h-5.1l-5.4-19.9-4.9 19.9h-5l-7.4-27h5.2l5.2 19.7 4.9-19.7h4.9l5.4 19.7 5.1-19.7h4.3zM617.4 561.1h-5.2l-2.2-6.4h-10.4l-2.1 6.4h-4.2l9-27h6zm-8.7-10.3l-3.9-12.1-3.9 12.1zM624.7 561.1v-27h5.1v22.6h11.5v4.4zM649.4 561.1v-22.9h-7.2V534h19.6v4.2h-7.2v22.9zM669.9 553.6a4.27 4.27 0 0 0 3.2 3.5 11.61 11.61 0 0 0 3.4.5c4.5 0 5.4-2.4 5.4-3.6 0-2.6-2.1-3.2-3.3-3.5l-6-1.5a7.11 7.11 0 0 1-5.8-7.2c0-5.1 4.1-8.1 9.6-8.1a11.53 11.53 0 0 1 7.4 2.4 6.68 6.68 0 0 1 2.3 3.5l-4.6 1.2c-.3-.9-1.1-3.1-5-3.1-3.7 0-4.7 2-4.7 3.4 0 2.1 2.4 2.9 3.8 3.2l4.6 1.1c2.3.6 7 1.9 7 7.7 0 5.4-4.6 8.5-10.7 8.5a12.87 12.87 0 0 1-8.3-2.6 8.23 8.23 0 0 1-2.7-4.4zM712.5 561.1v-27h5.1v22.6h11.5v4.4zM736.4 561.1v-27h4.9v27zM751.3 561.1v-27h17.4v4h-12.5v7.3h10.1v3.9h-10.1v7.6h12.7v4.2zM777.2 534.1h10.5c2.1 0 5.2 0 7.3 2.6a7.05 7.05 0 0 1 1.5 4.4 5.78 5.78 0 0 1-4.9 6 6.88 6.88 0 0 1 4.2 2.2 6.49 6.49 0 0 1 1.5 4.4 7.55 7.55 0 0 1-2.2 5.4 9 9 0 0 1-6.2 2h-11.8v-27zm4.6 11.4h6a3.62 3.62 0 0 0 3.9-3.9c0-3.2-3-3.6-4.1-3.6h-5.8v7.5zm0 11.6h6.3c2.5 0 4.3-1.4 4.3-3.9 0-2.2-1.6-3.9-4.3-3.9h-6.3zM805.9 561.1v-27h5.1v22.6h11.5v4.4zM828.3 561.1v-27h4.9v27zM863.7 561.1h-4.5l-10.6-17.3a28 28 0 0 1-1.5-3v20.3h-3.9v-27h5.4l9.5 15.9c.1.2.7 1.4 1.7 3.2v-19.1h3.9v27zM893.8 561.1h-2.1l-1.5-3.6a8 8 0 0 1-7.3 4.1c-9.9 0-11-10.8-11-13.9 0-5.8 2.8-13.9 11.6-13.9a9.38 9.38 0 0 1 7.7 3.4 10.72 10.72 0 0 1 2.3 4.8l-4.3.7c-.3-1.1-1.2-4.9-5.7-4.9a5.63 5.63 0 0 0-4.6 2.2c-.9 1.2-1.9 3-1.9 7.3 0 4.9 1.1 10.3 6.4 10.3 3.1 0 5.8-2.3 5.8-6.3h-5.6v-3.9h10.2v13.7z" fill="#fff"/><path d="M575.7 462.5c-4.3 29.3-24.4 38.1-42.1 38.1-37.2 0-44.4-38.1-44.4-57.2 0-28.8 13.3-57 45.1-57 23.6 0 37.4 15 41.4 39.2l-18.6 2c-2-8.8-5.8-25.1-22.6-25.1-22.3 0-23.6 30.4-23.6 40.4 0 31.8 12.6 40.9 24.3 40.9 10.5 0 20.3-8.3 21.9-23.4zM684.8 498.9h-21.3l-9-26.4H612l-8.6 26.4h-17.1L623.1 388h24.4zm-35.6-42.4L633.1 407 617 456.5zM766.6 498.9l-17.3-45.6h-28.1v45.6h-19.9V388h48c13.8 0 22.1 2.7 28.9 8.6 5.7 5.2 10 12.6 10 23.9 0 20.8-14.3 26.9-19.9 29.4l19.5 48.9h-21.2zm-45.4-61.5h24.9c9.8 0 21.3-3.3 21.3-17.1 0-8.3-5.5-16.3-19.6-16.3h-26.6v33.4zM810.8 388h40.9c6.3 0 20.8.2 34.2 13.8 10.8 11 15.8 26.1 15.8 41.6 0 23.4-10.8 37.4-18.5 44.2-4.7 4.2-17.1 11.3-36.1 11.3h-36.4V388zm20.4 94.6H848c17.3 0 32.1-13.3 32.1-40.1 0-20.3-10.8-38.7-29.8-38.7h-19.1z" fill="#565f69"/><path d="M850.4 482.5a17.7 17.7 0 0 1-2.3.1h-16.8l-2.4 2.5a3.49 3.49 0 0 0 2.4 1H848a17 17 0 0 0 2.3-.1v-3.5z" fill="#757c84"/><path d="M880.1 443.2c-.2 25.1-13.6 38.2-29.7 39.4v3.5a32.82 32.82 0 0 0 22.8-11.1c6.7-7.6 10.3-18.6 10.4-31.8z" fill="url(#k)"/><path d="M880.1 442.5v.6h3.5v-.6c0-21-11.4-42.2-33.2-42.2v3.5c18.9 0 29.7 18.5 29.7 38.7z" fill="url(#a)"/><path d="M828.8 485.1l2.4-2.5v-78.8l-2.6-2.4a3.41 3.41 0 0 0-.9 2.4v78.8a3.63 3.63 0 0 0 1.1 2.5zM850.4 403.8v-3.5h-19.1a3.63 3.63 0 0 0-2.6 1.1l2.6 2.4zM847.5 498.9v-3.5h-33.2l-3.5 3.5h36.4" fill="#565f69"/><path d="M898.2 443.4c0 22.7-10.8 35.8-17.3 41.5-1.2 1.1-12.2 10.3-33.5 10.4v3.5c18.8-.1 31.2-7.2 35.8-11.3 7.6-6.8 18.4-20.7 18.5-44.1z" fill="#565f69"/><path d="M883.4 404.3c9.5 9.7 14.8 23.6 14.8 39.1v.1h3.5v-.1c0-15.5-5-30.6-15.8-41.6-13.4-13.6-27.9-13.8-34.2-13.8h-4.2v3.5h4.2c5.7 0 19.2 0 31.7 12.8z" fill="url(#d)"/><path fill="url(#b)" d="M814.3 391.5l-3.5-3.5v110.9l3.5-3.5V391.5z"/><path fill="url(#c)" d="M847.5 391.5V388h-36.7l3.5 3.5h33.2z"/><path d="M880.1 442.5v.6h3.5v-.6c0-21-11.4-42.2-33.2-42.2v3.5c18.9 0 29.7 18.5 29.7 38.7z" style="isolation:isolate" opacity=".5" fill="url(#e)"/><path d="M828.8 485.1l2.4-2.5v-78.8l-2.6-2.4a3.41 3.41 0 0 0-.9 2.4v78.8a3.63 3.63 0 0 0 1.1 2.5z" style="isolation:isolate" fill="#afb0b2" opacity=".5"/><path d="M850.4 403.8v-3.5h-19.1a3.63 3.63 0 0 0-2.6 1.1l2.6 2.4zM847.5 498.9v-3.5h-33.2l-3.5 3.5h36.4" style="isolation:isolate" fill="#9a9b9c" opacity=".5"/><path d="M898.2 443.4c0 22.7-10.8 35.8-17.3 41.5-1.2 1.1-12.2 10.3-33.5 10.4v3.5c18.8-.1 31.2-7.2 35.8-11.3 7.6-6.8 18.4-20.7 18.5-44.1z" style="isolation:isolate" opacity=".5" fill="url(#f)"/><path d="M883.4 404.3c9.5 9.7 14.8 23.6 14.8 39.1v.1h3.5v-.1c0-15.5-5-30.6-15.8-41.6-13.4-13.6-27.9-13.8-34.2-13.8h-4.2v3.5h4.2c5.7 0 19.2 0 31.7 12.8z" style="isolation:isolate" opacity=".5" fill="url(#l)"/><path d="M718.8 439.9l2.4-2.6V404l-2.4-2.5a4.13 4.13 0 0 1 1.1-.7 3.48 3.48 0 0 0-2.2 3.2v33.4a3.38 3.38 0 0 0 2.2 3.2 2.59 2.59 0 0 1-1.1-.7z" fill="#565f69"/><path d="M749.3 440.8v-3.5c-1.1.1-2.1.1-3.2.1h-24.9l-2.4 2.6a3.41 3.41 0 0 0 2.4.9h24.9a46.26 46.26 0 0 0 5.4-.3 18 18 0 0 0-2.2.2z" fill="#757c84"/><path d="M767.4 420.7c-.2 12-9.3 15.9-18.1 16.6v3.5c13.6-.9 21.4-8.1 21.6-20.1z" fill="url(#m)"/><path d="M749.3 400.5h-28.1a3.49 3.49 0 0 0-2.4 1l2.4 2.5h26.6a7.57 7.57 0 0 1 1.5.1z" fill="#565f69"/><path d="M749.3 400.5v3.5c13 .6 18.1 8.2 18.1 16.2v.4h3.5v-.4c0-13.9-11.3-19.2-21.6-19.7z" fill="url(#n)"/><path d="M765 448.7a3.87 3.87 0 0 0 0 2.6l17.5 44.1 5.2 3.5-19.5-48.9z" fill="#565f69"/><path fill="#565f69" d="M782.5 495.4H769l-2.4 3.5h21.1l-5.2-3.5zM749.3 449.8h-28.1a3.54 3.54 0 0 0-3.5 3.5 3.74 3.74 0 0 1 1-2.5l2.5 2.5h28.1l2.1-2.8a3.77 3.77 0 0 0-2.1-.7zM704.7 495.4l-3.5 3.5h20l-3.5-3.5h-13z"/><path d="M717.7 453.3v42.1l3.5 3.5v-45.6l-2.5-2.5a4 4 0 0 0-1 2.5z" fill="#565f69"/><path d="M752.6 452.1a3.27 3.27 0 0 0-1.1-1.5l-2.1 2.8 17.3 45.6 2.4-3.5z" fill="#757c84"/><path fill="url(#o)" d="M704.7 391.5l-3.5-3.5v110.9l3.5-3.5V391.5z"/><path fill="url(#p)" d="M701.2 388l3.5 3.5h44.6V388h-48.1z"/><path d="M784.7 419v1.6c0 18.3-12 23.6-17.7 26.2l-.1.1a3.34 3.34 0 0 0-1.8 1.9l3.2 1.3c5.7-2.5 19.9-8.6 19.9-29.4v-1.6h-3.5z" fill="#565f69"/><path d="M784.7 419h3.5c-.4-10.4-4.6-17.5-9.9-22.4-6.8-6-15.1-8.6-28.9-8.6v3.5c12.6 0 20.3 2.2 26.6 7.8 5.5 5 8.3 11.5 8.7 19.7z" fill="url(#q)"/><path d="M749.3 400.5v3.5c13 .6 18.1 8.2 18.1 16.2v.4h3.5v-.4c0-13.9-11.3-19.2-21.6-19.7z" style="isolation:isolate" opacity=".5" fill="url(#r)"/><path d="M718.8 439.9l2.4-2.6V404l-2.4-2.5a4.13 4.13 0 0 1 1.1-.7 3.48 3.48 0 0 0-2.2 3.2v33.4a3.38 3.38 0 0 0 2.2 3.2 2.59 2.59 0 0 1-1.1-.7z" style="isolation:isolate" fill="#afb0b2" opacity=".5"/><path d="M749.3 400.5h-28.1a3.49 3.49 0 0 0-2.4 1l2.4 2.5h26.6a7.57 7.57 0 0 1 1.5.1z" style="isolation:isolate" fill="#9a9b9c" opacity=".5"/><path d="M784.7 419h3.5c-.4-10.4-4.6-17.5-9.9-22.4-6.8-6-15.1-8.6-28.9-8.6v3.5c12.6 0 20.3 2.2 26.6 7.8 5.5 5 8.3 11.5 8.7 19.7z" style="isolation:isolate" opacity=".5" fill="url(#s)"/><path d="M784.7 419v1.6c0 18.3-12 23.6-17.7 26.2l-.1.1a3.34 3.34 0 0 0-1.8 1.9l3.2 1.3c5.7-2.5 19.9-8.6 19.9-29.4v-1.6h-3.5z" style="isolation:isolate" opacity=".5" fill="url(#t)"/><path d="M765 448.7a3.87 3.87 0 0 0 0 2.6l17.5 44.1 5.2 3.5-19.5-48.9z" style="isolation:isolate" fill="#afb0b2" opacity=".5"/><path style="isolation:isolate" fill="#9a9b9c" opacity=".5" d="M782.5 495.4H769l-2.4 3.5h21.1l-5.2-3.5zM749.3 449.8h-28.1a3.54 3.54 0 0 0-3.5 3.5 3.74 3.74 0 0 1 1-2.5l2.5 2.5h28.1l2.1-2.8a3.77 3.77 0 0 0-2.1-.7zM704.7 495.4l-3.5 3.5h20l-3.5-3.5h-13z"/><path d="M717.7 453.3v42.1l3.5 3.5v-45.6l-2.5-2.5a4 4 0 0 0-1 2.5z" style="isolation:isolate" fill="#afb0b2" opacity=".5"/><path d="M617 456.5l-2.8 2.1a3.5 3.5 0 0 0 2.8 1.4h32.3a3.37 3.37 0 0 0 2.8-1.4l-2.8-2.1z" fill="url(#u)"/><path d="M633.1 403.5a3.45 3.45 0 0 0-3.3 2.4l-16.1 49.5a3.42 3.42 0 0 0 .5 3.1l2.8-2.1 16.1-49.5z" fill="#565f69"/><path d="M652.5 455.4l-16.1-49.5a3.55 3.55 0 0 0-3.3-2.4v3.5l16.1 49.5 2.8 2.1a3.38 3.38 0 0 0 .5-3.2z" fill="url(#v)"/><path fill="#565f69" d="M647.5 388l-2.5 3.5 34.9 103.9 4.9 3.5L647.5 388z"/><path fill="#565f69" d="M679.9 495.4H666l-2.5 3.5h21.3l-4.9-3.5z"/><path d="M657.8 471.3a3.25 3.25 0 0 0-1.2-1.6l-2.1 2.8 9 26.4 2.5-3.5z" fill="url(#w)"/><path d="M654.5 469H612a3.08 3.08 0 0 0-1.9.6l1.9 2.9h42.6l2.1-2.8a3.41 3.41 0 0 0-2.2-.7zM608.6 471.4l-7.9 24 2.5 3.5 8.6-26.4-1.9-2.9a4.2 4.2 0 0 0-1.3 1.8z" fill="#565f69"/><path fill="#565f69" d="M600.8 495.4h-9.7l-4.9 3.5h17.1l-2.5-3.5z"/><path fill="url(#x)" d="M586.2 498.9l4.9-3.5 34.5-103.9-2.5-3.5-36.9 110.9z"/><path fill="url(#y)" d="M645 391.5l2.5-3.5h-24.4l2.5 3.5H645z"/><path d="M633.1 403.5a3.45 3.45 0 0 0-3.3 2.4l-16.1 49.5a3.42 3.42 0 0 0 .5 3.1l2.8-2.1 16.1-49.5zM647.5 388l-2.5 3.5 34.9 103.9 4.9 3.5L647.5 388z" style="isolation:isolate" fill="#afb0b2" opacity=".5"/><path style="isolation:isolate" fill="#9a9b9c" opacity=".5" d="M679.9 495.4H666l-2.5 3.5h21.3l-4.9-3.5zM654.5 469H612a3.08 3.08 0 0 0-1.9.6l1.9 2.9h42.6l2.1-2.8a3.41 3.41 0 0 0-2.2-.7z"/><path d="M608.6 471.4l-7.9 24 2.5 3.5 8.6-26.4-1.9-2.9a4.2 4.2 0 0 0-1.3 1.8z" style="isolation:isolate" fill="#afb0b2" opacity=".35"/><path style="isolation:isolate" fill="#9a9b9c" opacity=".5" d="M600.8 495.4h-9.7l-4.9 3.5h17.1l-2.5-3.5z"/><path fill="#757c84" d="M557.1 460.3l2.9 3.9 11.6 1.3 4.1-3-18.6-2.2z"/><path d="M533.7 483.7c-11.1-.7-22.7-10.3-22.8-40.3h-3.5c.2 37.4 17.4 43.2 26.3 43.8z" fill="url(#z)"/><path d="M533.7 497c-15 0-26.1-6.6-33.1-19.6s-7.8-28-7.8-34h-3.5c0 19.1 7.2 57.1 44.4 57.1h.1V497z" fill="url(#A)"/><path d="M557.1 460.3c-1.7 15.1-11.5 23.4-21.9 23.4a6.15 6.15 0 0 1-1.4-.1v3.5h1.4c12.2 0 22.1-9.3 24.9-23.1z" fill="url(#B)"/><path d="M571.6 465.5c-2.2 10.7-6.9 18.8-14.1 24.2-8 6.1-17.4 7.3-23.9 7.4v3.5c17.6 0 37.7-8.8 42-38.1zM571.6 422.5l-11.8 1.3-2.7 3.8 18.6-2-4.1-3.1zM533.6 402.5V399c-16.7.6-26.2 16.5-26.2 43.9v.6h3.5v-.6c0-9.9 1.3-39.6 22.7-40.4z" fill="#565f69"/><path d="M534.5 399h-.9v3.5h.9c16.8 0 20.6 16.3 22.6 25.1l2.7-3.8c-2.3-9.3-7.7-24.8-25.3-24.8z" fill="url(#C)"/><path d="M534.3 386.3h-.7v3.5h.7c14 0 31.5 5.8 37.3 32.7l4.1 3.1c-4-24.3-17.8-39.3-41.4-39.3z" fill="#757c84"/><path d="M533.6 386.4c-31.2.4-44.3 28.5-44.3 57v.1h3.5v-.1c0-14.6 3.6-27.9 10-37.3 7.4-10.8 18-16.2 31.5-16.2h-.7z" fill="url(#D)"/><path d="M571.6 465.5c-2.2 10.7-6.9 18.8-14.1 24.2-8 6.1-17.4 7.3-23.9 7.4v3.5c17.6 0 37.7-8.8 42-38.1z" style="isolation:isolate" opacity=".5" fill="url(#E)"/><path d="M533.7 483.7c-11.1-.7-22.7-10.3-22.8-40.3h-3.5c.2 37.4 17.4 43.2 26.3 43.8z" style="isolation:isolate" opacity=".5" fill="url(#F)"/><path d="M533.7 497c-15 0-26.1-6.6-33.1-19.6s-7.8-28-7.8-34h-3.5c0 19.1 7.2 57.1 44.4 57.1h.1V497z" style="isolation:isolate" opacity=".5" fill="url(#G)"/><path d="M534.3 386.3h-.7v3.5h.7c14 0 31.5 5.8 37.3 32.7l4.1 3.1c-4-24.3-17.8-39.3-41.4-39.3z" style="isolation:isolate" opacity=".5" fill="url(#H)"/><path style="isolation:isolate" fill="#9a9b9c" opacity=".5" d="M571.6 422.5l-11.8 1.3-2.7 3.8 18.6-2-4.1-3.1z"/><path d="M534.5 399h-.9v3.5h.9c16.8 0 20.6 16.3 22.6 25.1l2.7-3.8c-2.3-9.3-7.7-24.8-25.3-24.8z" style="isolation:isolate" opacity=".5" fill="url(#I)"/><path d="M533.6 402.5V399c-16.7.6-26.2 16.5-26.2 43.9v.6h3.5v-.6c0-9.9 1.3-39.6 22.7-40.4z" style="isolation:isolate" opacity=".5" fill="url(#J)"/><path d="M312.7 498.9L278.5 388h21.1l25.4 85 25.9-85h16.6L333 498.9z" fill="#fff"/><path fill="#c2c5c9" d="M315.3 495.4l-2.6 3.5H333l-2.6-3.5h-15.1z"/><path d="M325 472.9L299.6 388l-2.6 3.5 24.7 82.5a3.42 3.42 0 0 0 3.3 2.5z" fill="#d1d3d6"/><path d="M351 388l-26 85v3.5a3.42 3.42 0 0 0 3.3-2.5l25.2-82.5z" fill="url(#K)"/><path fill="#fff" d="M278.5 388l4.7 3.5H297l2.6-3.5h-21.1zM351 388l2.6 3.5h9.2l4.8-3.5H351z"/><path fill="#d1d3d6" d="M367.6 388l-4.8 3.5-32.4 103.9 2.6 3.5L367.6 388z"/><path fill="url(#g)" d="M315.3 495.4l-32.1-103.9-4.7-3.5 34.2 110.9 2.6-3.5z"/><path d="M179.2 388h40.9c6.3 0 20.8.2 34.2 13.8 10.8 11 15.8 26.1 15.8 41.6 0 23.4-10.8 37.4-18.5 44.2-4.7 4.2-17.1 11.3-36.1 11.3h-36.4V388zm20.5 94.6h16.8c17.3 0 32.1-13.3 32.1-40.1 0-20.3-10.8-38.7-29.8-38.7h-19.1z" fill="#fff"/><path d="M218.8 482.5a17.7 17.7 0 0 1-2.3.1h-16.8l-2.4 2.5a3.49 3.49 0 0 0 2.4 1h16.8a17 17 0 0 0 2.3-.1zM248.5 443.2c-.2 25.1-13.6 38.2-29.7 39.4v3.5a32.82 32.82 0 0 0 22.8-11.1c6.7-7.6 10.3-18.6 10.4-31.8z" fill="#fff"/><path d="M248.6 442.5v.6h3.5v-.6c0-21-11.4-42.2-33.2-42.2v3.5c18.9 0 29.7 18.5 29.7 38.7z" fill="url(#h)"/><path d="M197.2 485.1l2.4-2.5v-78.8l-2.6-2.4a3.41 3.41 0 0 0-.9 2.4v78.8a4.13 4.13 0 0 0 1.1 2.5z" fill="url(#L)"/><path d="M218.8 403.8v-3.5h-19.1a3.63 3.63 0 0 0-2.6 1.1l2.6 2.4zM215.9 498.9v-3.5h-33.2l-3.5 3.5h36.4" fill="#c2c5c9"/><path d="M266.7 443.4c0 22.7-10.8 35.8-17.3 41.5-1.2 1.1-12.2 10.3-33.5 10.4v3.5c18.8-.1 31.2-7.2 35.8-11.3 7.6-6.8 18.4-20.7 18.5-44.1z" fill="url(#i)"/><path d="M251.9 404.3c9.5 9.7 14.8 23.6 14.8 39.1v.1h3.5v-.1c0-15.5-5-30.6-15.8-41.6-13.5-13.6-27.9-13.8-34.2-13.8H216v3.5h4.2c5.7 0 19.1 0 31.7 12.8z" fill="url(#j)"/><path fill="url(#M)" d="M182.7 391.5l-3.5-3.5v110.9l3.5-3.5V391.5z"/><path fill="#fff" d="M215.9 391.5V388h-36.7l3.5 3.5h33.2zM161.4 498.9h-21.3l-9-26.4H88.6L80 498.9H62.9L99.8 388h24.4zm-35.5-42.4L109.7 407l-16.1 49.5z"/><path d="M93.6 456.5l-2.8 2.1a3.5 3.5 0 0 0 2.8 1.4h32.3a3.37 3.37 0 0 0 2.8-1.4l-2.8-2.1z" fill="url(#N)"/><path d="M109.7 403.5a3.45 3.45 0 0 0-3.3 2.4l-16.1 49.5a3.42 3.42 0 0 0 .5 3.1l2.8-2.1 16.1-49.5z" fill="#d1d3d6"/><path d="M129.2 455.4l-16.1-49.5a3.55 3.55 0 0 0-3.3-2.4v3.5l16.1 49.5 2.8 2.1a3.67 3.67 0 0 0 .5-3.2z" fill="url(#O)"/><path fill="#d1d3d6" d="M124.2 388l-2.6 3.5h.1l34.9 103.9 4.8 3.5L124.2 388z"/><path fill="#c2c5c9" d="M156.6 495.4h-13.9l-2.5 3.5h21.2l-4.8-3.5z"/><path d="M134.5 471.3a3.25 3.25 0 0 0-1.2-1.6l-2.1 2.8 9 26.4 2.5-3.5z" fill="#fff"/><path d="M131.2 469H88.6a3.08 3.08 0 0 0-1.9.6l1.9 2.9h42.6l2.1-2.8a3.14 3.14 0 0 0-2.1-.7z" fill="#c2c5c9"/><path d="M85.3 471.4l-7.9 24 2.5 3.5 8.6-26.4-1.9-2.9a4.2 4.2 0 0 0-1.3 1.8z" fill="#d1d3d6"/><path fill="#c2c5c9" d="M77.4 495.4h-9.7l-4.8 3.5H80l-2.6-3.5z"/><path fill="url(#P)" d="M62.9 498.9l4.8-3.5 34.6-103.9-2.5-3.5-36.9 110.9z"/><path fill="#fff" d="M121.6 391.5l2.6-3.5H99.8l2.5 3.5h19.3zM422.9 500.5c-34.9 0-46.7-32.4-46.7-57.5 0-29.9 17-56.7 47.5-56.7 31.3 0 46.7 27.3 46.7 57 .1 34-18.4 57.2-47.5 57.2zm20.5-85.9c-5.7-11.5-15.5-12.1-19.9-12.1-20.9 0-25.6 21.4-25.6 41.2 0 13.1 2.2 40.7 25.3 40.7a23.4 23.4 0 0 0 20.8-12.8c2.7-5.3 5-12.6 5-28.4-.1-4.5-.5-18.1-5.6-28.6z"/><path d="M448.9 443.4c0 15.6-2.3 22.9-5 28.2a23.34 23.34 0 0 1-20.5 12.8v3.5a27.1 27.1 0 0 0 23.7-14.7c2.6-5.3 5.3-12.9 5.4-29.7h-3.6z" fill="#fff"/><path d="M443.4 414.6c5.2 10.5 5.5 24.1 5.5 28.6v.3h3.5v-.3c0-6.8-.8-19.8-5.8-30.1-4.6-9.3-12.4-14.1-23.1-14.1h-.1v3.5h.1c4.4 0 14.2.6 19.9 12.1z" fill="url(#Q)"/><path d="M397.8 443.7v-.2h-3.5v.2c0 28.5 10.2 44.2 28.8 44.2h.2v-3.5h-.2c-23.1 0-25.3-27.6-25.3-40.7z" fill="url(#R)"/><path d="M397.8 443.4c0-19.7 4.7-40.9 25.5-41V399c-13.2 0-28.9 7.8-29 44.5h3.5z" fill="url(#S)"/><path d="M467 443.4c0 15.9-4.2 29.4-12.1 39-7.7 9.4-18.7 14.5-31.6 14.6v3.5c28.8-.2 47.1-23.4 47.1-57.1z" fill="url(#T)"/><path d="M423.8 386.3h-.4v3.5h.4c13.4 0 24.6 5.5 32.3 15.9 7.1 9.6 11 22.9 11 37.6v.1h3.5v-.1c-.1-29.7-15.6-57-46.8-57z" fill="url(#U)"/><path d="M423.4 497h-.4c-14.6 0-25.9-6-33.5-17.8-6.1-9.4-9.6-22.4-9.7-35.9h-3.5c.1 25 12 57.1 46.7 57.1h.4z" fill="url(#V)"/><path d="M423.4 389.8v-3.5c-30.3.2-47.1 26.9-47.1 56.7v.4h3.5v-.4c-.1-25.5 13.6-52.9 43.6-53.2z" fill="#fff"/></svg>