<svg class="logo" version="1.1" xmlns="http://www.w3.org/2000/svg" xmlns:xlink="http://www.w3.org/1999/xlink" x="0px" y="0px"
	 viewBox="0 0 200 50" style="enable-background:new 0 0 200 50;" xml:space="preserve">
    <g>
    	<defs>
    		<rect id="SVGID_1_" width="200" height="50"/>
    	</defs>
    	<clipPath id="SVGID_2_">
    		<use xlink:href="#SVGID_1_" style="overflow:visible;"/>
    	</clipPath>
    	<g class="part1">
    		<path d="M1.4,11.5c0.3-0.2,1.1-0.3,1.9-0.3c1,0,1.6,0.1,2,0.3l5.4,10c0.8,1.4,1.4,3,1.8,4.7h0.2c0.4-1.6,1.2-3.4,1.9-4.8l5.3-9.9c0.4-0.2,1-0.3,2-0.3c0.8,0,1.5,0.1,1.8,0.3l-9.3,17.1v9.9c-0.4,0.2-0.9,0.3-1.8,0.3s-1.5-0.1-1.8-0.3v-9.9L1.4,11.5z"/>
    		<path d="M53.9,28.7c0,5.4,2.3,7.7,7.1,7.7c5.2,0,7.4-3.1,7.4-7.8V11.5c0.4-0.2,0.9-0.3,1.8-0.3s1.4,0.1,1.7,0.3v16.8c0,7-3.4,11.4-11,11.4c-7.1,0-10.6-3.5-10.6-10.7V11.5c0.4-0.2,1-0.3,1.8-0.3s1.4,0.1,1.8,0.3V28.7z"/>
    		<path d="M78.4,11.5c2.2-0.4,4.7-0.6,7.3-0.6c7.3,0,11.7,2.7,11.7,8.8c0,4.2-2.1,6.7-5.2,7.9l7,11c-0.3,0.2-1,0.3-1.9,0.3c-1.1,0-1.8-0.1-2.4-0.3l-6.3-10.2c-0.3,0-1.2,0.1-1.8,0.1c-1.4,0-3.8-0.2-4.8-0.3v10.5c-0.4,0.2-0.9,0.3-1.8,0.3s-1.5-0.1-1.8-0.3V11.5z M82,14.4v10.6c1.1,0.2,2.9,0.4,4.3,0.4c4.8,0,7.4-1.5,7.4-5.4c0-4.2-3.1-5.8-8-5.8C84.4,14,83.2,14.1,82,14.4z"/>
    	</g>
    	<g class="part2">
    		<path d="M106.3,38.6c-0.4,0.2-0.9,0.3-1.7,0.3c-0.8,0-1.4-0.1-1.7-0.3V19.9c0.7-0.4,1.7-0.6,2.8-0.6l0.2,3h0.2c0.9-1.8,2.9-3.4,6.6-3.4c3.1,0,6.7,1.1,6.7,7.5v12.2c-0.4,0.2-0.9,0.3-1.7,0.3c-0.8,0-1.4-0.1-1.7-0.3V27.1c0-3-1-5-4.3-5c-2.8,0-4.4,1.5-5.3,3V38.6z"/>
    		<path d="M127,30.3c0.2,4.3,2.9,6.1,7.1,6.1c2.4,0,4.4-0.6,6-1.5c0.1,1.1-0.3,2.6-0.9,3.2c-1.2,0.8-3.3,1.4-5.9,1.4c-6.4,0-9.9-4-9.9-10.1c0-6.1,3.6-10.5,9.4-10.5c5.2,0,7.6,3.4,7.6,8.2c0,1.2-0.2,2.3-0.5,3.2H127zM137.1,27.4c0.3-2.6-0.6-5.5-4.4-5.5c-3.4,0-5.4,2.2-5.7,5.5H137.1z"/>
    		<path d="M147.3,30.3c0.2,4.3,2.9,6.1,7.1,6.1c2.4,0,4.4-0.6,6-1.5c0.1,1.1-0.3,2.6-0.9,3.2c-1.2,0.8-3.3,1.4-5.9,1.4c-6.4,0-9.9-4-9.9-10.1c0-6.1,3.6-10.5,9.4-10.5c5.2,0,7.6,3.4,7.6,8.2c0,1.2-0.2,2.3-0.5,3.2H147.3zM157.4,27.4c0.3-2.6-0.6-5.5-4.4-5.5c-3.4,0-5.4,2.2-5.7,5.5H157.4z"/>
    		<path d="M177.8,10.4c0.8-0.5,2-0.8,3.4-0.8v28.9c-0.7,0.4-1.6,0.6-2.6,0.6l-0.5-2.3h-0.2c-1.2,1.7-3.2,2.7-5.9,2.7c-4.8,0-8.1-3.2-8.1-9.7c0-7.1,3.8-10.9,9.7-10.9c1.7,0,3.1,0.3,4.1,0.8V10.4zM177.8,22.6c-0.9-0.4-2.1-0.6-3.3-0.6c-4.9,0-6.9,3.2-6.9,7.7c0,4.4,1.9,6.7,5.5,6.7c2.4,0,3.7-1.1,4.7-2.1V22.6z"/>
    		<path d="M191.8,36.6c2.6,0,4-1,4-2.7c0-4.5-9.6-2.8-9.6-9.3c0-3.6,2.3-5.6,6.4-5.6c1.8,0,3.7,0.4,5.1,1.4c0.5,0.8,0.8,2.5,0.6,3.4c-1.5-1.2-3.5-1.9-5.4-1.9c-2.3,0-3.2,0.9-3.2,2.3c0,4.1,9.6,2.5,9.6,9.3c0,4.5-3.3,6.2-7.4,6.2c-2,0-4.2-0.4-5.7-1.3c-0.6-0.9-0.8-2.6-0.6-3.6C187,35.9,189.7,36.6,191.8,36.6z"/>
    	</g>
    	<g class="part1">
    		<path d="M41.3,11.5c-6.8,0-24.5,2.2-17.9,26.3c0,0,28.9-0.3,20.4-26.2C43.9,11.6,42.9,11.5,41.3,11.5 M41.3,13.3c0.5,0,0.9,0,1.2,0c1.9,6.3,1.4,11.4-1.3,15.2C37,34.4,28.2,35.7,24.8,36c-1.8-7.4-1.3-13.1,1.7-17C30.3,14,37.4,13.3,41.3,13.3"
    			/>
    	</g>
    	<g class="part1">
    		<path d="M23.1,38.4L23,38c-2.4-8.8-1.9-15.6,1.7-20.3C29.1,11.9,37,11,41.3,11c1.6,0,2.5,0.1,2.6,0.1l0.3,0l0.1,0.3c2.5,7.5,2.1,13.7-1.2,18.3c-6,8.3-19.1,8.6-19.6,8.6L23.1,38.4zM41.3,12c-4.1,0-11.7,0.8-15.9,6.3c-3.3,4.3-3.8,10.7-1.6,19c2.2-0.1,13.3-1,18.4-8.1c3.1-4.3,3.5-10,1.2-17.1C43.1,12.1,42.3,12,41.3,12zM24.4,36.6l-0.1-0.4c-1.9-7.6-1.3-13.4,1.7-17.4c4-5.2,11.3-6,15.3-6c0.5,0,0.9,0,1.2,0l0.4,0l0.1,0.3c1.9,6.5,1.4,11.7-1.3,15.6c-4.3,6.1-13.2,7.4-16.8,7.7L24.4,36.6zM41.3,13.8c-3.8,0-10.8,0.7-14.5,5.6c-2.8,3.6-3.3,9-1.7,16.1c3.7-0.4,11.7-1.8,15.7-7.3c2.6-3.6,3-8.4,1.3-14.4C41.9,13.8,41.6,13.8,41.3,13.8z"/>
    	</g>
    	<g class="part1">
    		<path d="M40.2,16.1c0,0-13,10.9-18.2,24c0.9,0.3,2-0.8,2-0.8S31.7,25.1,40.2,16.1"/>
    	</g>
    	<g class="part1">
    		<path d="M22.3,40.7c-0.2,0-0.3,0-0.5-0.1l-0.5-0.2l0.2-0.5c5.2-13,18.2-24.1,18.4-24.2l0.7,0.7c-8.3,8.9-16,22.9-16.1,23.1l-0.1,0.1C24.2,39.8,23.3,40.7,22.3,40.7z M33.7,23.3c-3.8,4.2-8.3,10-11,16.3c0.3-0.1,0.7-0.4,0.9-0.6C24,38.2,28.2,30.6,33.7,23.3z"/>
    	</g>
    </g>
</svg>
