<?xml version="1.0" standalone="no"?>
<!DOCTYPE svg PUBLIC "-//W3C//DTD SVG 20010904//EN"
 "http://www.w3.org/TR/2001/REC-SVG-20010904/DTD/svg10.dtd">
<svg version="1.0" xmlns="http://www.w3.org/2000/svg"
 width="672.000000pt" height="672.000000pt" viewBox="0 0 672.000000 672.000000"
 preserveAspectRatio="xMidYMid meet">
<metadata>
Created by potrace 1.11, written by Peter Selinger 2001-2013
</metadata>
<g transform="translate(0.000000,672.000000) scale(0.100000,-0.100000)"
fill="#000000" stroke="none">
<path d="M4700 6709 c-1013 -59 -1862 -315 -2520 -760 -420 -284 -785 -682
-1022 -1114 -220 -401 -350 -837 -415 -1390 -25 -215 -25 -866 0 -1115 38
-369 93 -709 178 -1091 l50 -227 -61 -122 c-100 -199 -188 -393 -271 -599 -44
-107 -78 -195 -77 -196 11 -7 174 -67 222 -81 75 -23 156 -10 260 39 79 38
270 162 299 195 11 11 67 103 126 204 l106 183 131 11 c569 52 1224 199 1764
396 542 198 1012 456 1411 775 162 130 412 377 533 528 412 514 650 1120 728
1850 18 174 15 661 -6 860 -51 494 -156 962 -337 1511 l-40 121 -117 7 c-64 4
-166 11 -227 16 -131 11 -525 10 -715 -1z m565 -771 c72 -254 146 -658 176
-973 14 -153 14 -523 -1 -685 -80 -868 -492 -1555 -1235 -2056 -427 -288 -954
-512 -1590 -674 -212 -54 -544 -124 -552 -116 -15 15 805 1277 1205 1856 627
906 1222 1677 1731 2243 l124 139 -111 111 -111 111 -93 -86 c-349 -323 -845
-820 -1212 -1218 -786 -851 -1476 -1729 -1971 -2509 -60 -94 -111 -169 -113
-166 -8 7 -51 364 -63 523 -18 229 -15 664 5 854 84 803 347 1377 835 1822
603 550 1602 866 2768 875 l192 1 16 -52z"/>
</g>
</svg>
